<svg width="977" height="300" viewBox="0 0 977 300" fill="none" xmlns="http://www.w3.org/2000/svg">
<rect width="977" height="300" fill="#222222"/>
<circle cx="150" cy="150" r="150" fill="#0080FF"/>
<path d="M123 44L57 250" stroke="white" stroke-width="10" stroke-miterlimit="1.41421" stroke-linecap="round"/>
<path d="M100 48L208 210" stroke="white" stroke-width="10" stroke-miterlimit="1.41421" stroke-linecap="round"/>
<path d="M236 48L180 214" stroke="white" stroke-width="10" stroke-miterlimit="1.41421" stroke-linecap="round"/>
<path d="M483.607 77.5455V223H466.561L387.3 108.795H385.88V223H368.266V77.5455H385.311L464.857 192.034H466.277V77.5455H483.607ZM536.466 77.5455V223H518.852V77.5455H536.466ZM563.827 93.1705V77.5455H672.918V93.1705H627.179V223H609.566V93.1705H563.827ZM700.102 223V77.5455H749.25C760.613 77.5455 769.941 79.4867 777.233 83.3693C784.524 87.2045 789.922 92.4839 793.426 99.2074C796.93 105.931 798.681 113.578 798.681 122.148C798.681 130.718 796.93 138.317 793.426 144.946C789.922 151.575 784.548 156.783 777.304 160.571C770.059 164.312 760.803 166.182 749.534 166.182H709.761V150.273H748.966C756.731 150.273 762.981 149.136 767.716 146.864C772.498 144.591 775.954 141.371 778.085 137.205C780.263 132.991 781.352 127.972 781.352 122.148C781.352 116.324 780.263 111.234 778.085 106.878C775.907 102.522 772.427 99.16 767.645 96.7926C762.862 94.3778 756.541 93.1705 748.681 93.1705H717.716V223H700.102ZM768.568 157.659L804.363 223H783.909L748.681 157.659H768.568ZM845.645 77.5455V223H828.032V77.5455H845.645ZM876.132 223V210.216L954.541 93.1705H875.279V77.5455H975.564V90.3295L897.154 207.375H976.416V223H876.132Z" fill="white"/>
</svg>
