<svg width="500" height="500" viewBox="0 0 500 500" fill="none" xmlns="http://www.w3.org/2000/svg">
<rect width="500" height="500" fill="#F5F5F5"/>
<circle cx="250" cy="250" r="250" fill="#222222"/>
<g filter="url(#filter0_b_0_1)">
<path d="M153.093 378.091C153.008 377.371 152.662 376.812 152.056 376.415C151.45 376.017 150.706 375.818 149.826 375.818C149.182 375.818 148.618 375.922 148.135 376.131C147.657 376.339 147.283 376.625 147.013 376.99C146.748 377.355 146.616 377.769 146.616 378.233C146.616 378.621 146.708 378.955 146.893 379.234C147.082 379.509 147.323 379.739 147.617 379.923C147.911 380.103 148.218 380.252 148.54 380.371C148.862 380.484 149.158 380.577 149.428 380.648L150.905 381.045C151.284 381.145 151.706 381.282 152.17 381.457C152.638 381.633 153.086 381.872 153.512 382.175C153.943 382.473 154.298 382.857 154.577 383.325C154.857 383.794 154.996 384.369 154.996 385.051C154.996 385.837 154.79 386.547 154.378 387.182C153.971 387.816 153.375 388.321 152.589 388.695C151.807 389.069 150.858 389.256 149.741 389.256C148.699 389.256 147.797 389.088 147.035 388.751C146.277 388.415 145.68 387.946 145.245 387.345C144.814 386.744 144.57 386.045 144.513 385.25H146.331C146.379 385.799 146.564 386.254 146.885 386.614C147.212 386.969 147.624 387.234 148.121 387.409C148.623 387.58 149.163 387.665 149.741 387.665C150.413 387.665 151.017 387.556 151.552 387.338C152.087 387.116 152.51 386.808 152.823 386.415C153.135 386.017 153.292 385.553 153.292 385.023C153.292 384.54 153.157 384.147 152.887 383.844C152.617 383.541 152.262 383.295 151.822 383.105C151.381 382.916 150.905 382.75 150.394 382.608L148.604 382.097C147.468 381.77 146.568 381.304 145.905 380.697C145.242 380.091 144.911 379.298 144.911 378.318C144.911 377.504 145.131 376.794 145.572 376.188C146.017 375.577 146.613 375.103 147.361 374.767C148.114 374.426 148.955 374.256 149.883 374.256C150.82 374.256 151.653 374.424 152.383 374.76C153.112 375.091 153.689 375.546 154.116 376.124C154.546 376.701 154.774 377.357 154.797 378.091H153.093ZM156.642 374.455H158.659L162.693 381.244H162.864L166.898 374.455H168.915L163.659 383.006V389H161.898V383.006L156.642 374.455ZM179.148 378.091C179.062 377.371 178.717 376.812 178.111 376.415C177.505 376.017 176.761 375.818 175.881 375.818C175.237 375.818 174.673 375.922 174.19 376.131C173.712 376.339 173.338 376.625 173.068 376.99C172.803 377.355 172.67 377.769 172.67 378.233C172.67 378.621 172.763 378.955 172.947 379.234C173.137 379.509 173.378 379.739 173.672 379.923C173.965 380.103 174.273 380.252 174.595 380.371C174.917 380.484 175.213 380.577 175.483 380.648L176.96 381.045C177.339 381.145 177.76 381.282 178.224 381.457C178.693 381.633 179.14 381.872 179.567 382.175C179.997 382.473 180.353 382.857 180.632 383.325C180.911 383.794 181.051 384.369 181.051 385.051C181.051 385.837 180.845 386.547 180.433 387.182C180.026 387.816 179.429 388.321 178.643 388.695C177.862 389.069 176.913 389.256 175.795 389.256C174.754 389.256 173.852 389.088 173.089 388.751C172.332 388.415 171.735 387.946 171.3 387.345C170.869 386.744 170.625 386.045 170.568 385.25H172.386C172.434 385.799 172.618 386.254 172.94 386.614C173.267 386.969 173.679 387.234 174.176 387.409C174.678 387.58 175.218 387.665 175.795 387.665C176.468 387.665 177.071 387.556 177.606 387.338C178.141 387.116 178.565 386.808 178.878 386.415C179.19 386.017 179.346 385.553 179.346 385.023C179.346 384.54 179.211 384.147 178.942 383.844C178.672 383.541 178.317 383.295 177.876 383.105C177.436 382.916 176.96 382.75 176.449 382.608L174.659 382.097C173.523 381.77 172.623 381.304 171.96 380.697C171.297 380.091 170.966 379.298 170.966 378.318C170.966 377.504 171.186 376.794 171.626 376.188C172.071 375.577 172.668 375.103 173.416 374.767C174.169 374.426 175.009 374.256 175.937 374.256C176.875 374.256 177.708 374.424 178.437 374.76C179.166 375.091 179.744 375.546 180.17 376.124C180.601 376.701 180.828 377.357 180.852 378.091H179.148ZM183.151 376.017V374.455H194.061V376.017H189.487V389H187.725V376.017H183.151ZM196.779 389V374.455H205.557V376.017H198.54V380.932H205.103V382.494H198.54V387.438H205.671V389H196.779ZM208.732 374.455H210.834L215.778 386.528H215.948L220.891 374.455H222.993V389H221.346V377.949H221.204L216.658 389H215.067L210.522 377.949H210.38V389H208.732V374.455ZM234.48 378.091C234.394 377.371 234.049 376.812 233.443 376.415C232.837 376.017 232.093 375.818 231.213 375.818C230.569 375.818 230.005 375.922 229.522 376.131C229.044 376.339 228.67 376.625 228.4 376.99C228.135 377.355 228.002 377.769 228.002 378.233C228.002 378.621 228.095 378.955 228.279 379.234C228.469 379.509 228.71 379.739 229.004 379.923C229.297 380.103 229.605 380.252 229.927 380.371C230.249 380.484 230.545 380.577 230.815 380.648L232.292 381.045C232.671 381.145 233.092 381.282 233.556 381.457C234.025 381.633 234.472 381.872 234.899 382.175C235.329 382.473 235.685 382.857 235.964 383.325C236.243 383.794 236.383 384.369 236.383 385.051C236.383 385.837 236.177 386.547 235.765 387.182C235.358 387.816 234.761 388.321 233.975 388.695C233.194 389.069 232.245 389.256 231.127 389.256C230.086 389.256 229.184 389.088 228.421 388.751C227.664 388.415 227.067 387.946 226.632 387.345C226.201 386.744 225.957 386.045 225.9 385.25H227.718C227.766 385.799 227.95 386.254 228.272 386.614C228.599 386.969 229.011 387.234 229.508 387.409C230.01 387.58 230.55 387.665 231.127 387.665C231.8 387.665 232.403 387.556 232.938 387.338C233.473 387.116 233.897 386.808 234.21 386.415C234.522 386.017 234.678 385.553 234.678 385.023C234.678 384.54 234.544 384.147 234.274 383.844C234.004 383.541 233.649 383.295 233.208 383.105C232.768 382.916 232.292 382.75 231.781 382.608L229.991 382.097C228.855 381.77 227.955 381.304 227.292 380.697C226.629 380.091 226.298 379.298 226.298 378.318C226.298 377.504 226.518 376.794 226.958 376.188C227.403 375.577 228 375.103 228.748 374.767C229.501 374.426 230.341 374.256 231.269 374.256C232.207 374.256 233.04 374.424 233.769 374.76C234.499 375.091 235.076 375.546 235.502 376.124C235.933 376.701 236.16 377.357 236.184 378.091H234.48ZM252.858 378.091C252.773 377.371 252.428 376.812 251.822 376.415C251.215 376.017 250.472 375.818 249.591 375.818C248.948 375.818 248.384 375.922 247.901 376.131C247.423 376.339 247.049 376.625 246.779 376.99C246.514 377.355 246.381 377.769 246.381 378.233C246.381 378.621 246.474 378.955 246.658 379.234C246.848 379.509 247.089 379.739 247.383 379.923C247.676 380.103 247.984 380.252 248.306 380.371C248.628 380.484 248.924 380.577 249.194 380.648L250.671 381.045C251.05 381.145 251.471 381.282 251.935 381.457C252.404 381.633 252.851 381.872 253.278 382.175C253.708 382.473 254.064 382.857 254.343 383.325C254.622 383.794 254.762 384.369 254.762 385.051C254.762 385.837 254.556 386.547 254.144 387.182C253.737 387.816 253.14 388.321 252.354 388.695C251.573 389.069 250.624 389.256 249.506 389.256C248.465 389.256 247.563 389.088 246.8 388.751C246.043 388.415 245.446 387.946 245.01 387.345C244.58 386.744 244.336 386.045 244.279 385.25H246.097C246.144 385.799 246.329 386.254 246.651 386.614C246.978 386.969 247.39 387.234 247.887 387.409C248.389 387.58 248.929 387.665 249.506 387.665C250.179 387.665 250.782 387.556 251.317 387.338C251.852 387.116 252.276 386.808 252.589 386.415C252.901 386.017 253.057 385.553 253.057 385.023C253.057 384.54 252.922 384.147 252.653 383.844C252.383 383.541 252.028 383.295 251.587 383.105C251.147 382.916 250.671 382.75 250.16 382.608L248.37 382.097C247.233 381.77 246.334 381.304 245.671 380.697C245.008 380.091 244.677 379.298 244.677 378.318C244.677 377.504 244.897 376.794 245.337 376.188C245.782 375.577 246.379 375.103 247.127 374.767C247.88 374.426 248.72 374.256 249.648 374.256C250.586 374.256 251.419 374.424 252.148 374.76C252.877 375.091 253.455 375.546 253.881 376.124C254.312 376.701 254.539 377.357 254.563 378.091H252.858ZM269.931 381.727C269.931 383.261 269.654 384.587 269.1 385.705C268.546 386.822 267.786 387.684 266.82 388.29C265.854 388.896 264.751 389.199 263.51 389.199C262.27 389.199 261.166 388.896 260.2 388.29C259.235 387.684 258.475 386.822 257.921 385.705C257.367 384.587 257.09 383.261 257.09 381.727C257.09 380.193 257.367 378.867 257.921 377.75C258.475 376.633 259.235 375.771 260.2 375.165C261.166 374.559 262.27 374.256 263.51 374.256C264.751 374.256 265.854 374.559 266.82 375.165C267.786 375.771 268.546 376.633 269.1 377.75C269.654 378.867 269.931 380.193 269.931 381.727ZM268.226 381.727C268.226 380.468 268.015 379.405 267.594 378.538C267.177 377.672 266.611 377.016 265.896 376.571C265.186 376.126 264.391 375.903 263.51 375.903C262.629 375.903 261.832 376.126 261.117 376.571C260.406 377.016 259.841 377.672 259.419 378.538C259.003 379.405 258.794 380.468 258.794 381.727C258.794 382.987 259.003 384.05 259.419 384.916C259.841 385.783 260.406 386.438 261.117 386.884C261.832 387.329 262.629 387.551 263.51 387.551C264.391 387.551 265.186 387.329 265.896 386.884C266.611 386.438 267.177 385.783 267.594 384.916C268.015 384.05 268.226 382.987 268.226 381.727ZM272.892 389V374.455H274.654V387.438H281.415V389H272.892ZM293.688 374.455H295.449V384.085C295.449 385.08 295.215 385.967 294.746 386.749C294.282 387.525 293.626 388.138 292.779 388.588C291.931 389.033 290.937 389.256 289.796 389.256C288.655 389.256 287.66 389.033 286.813 388.588C285.965 388.138 285.307 387.525 284.838 386.749C284.374 385.967 284.142 385.08 284.142 384.085V374.455H285.904V383.943C285.904 384.653 286.06 385.286 286.372 385.839C286.685 386.389 287.13 386.822 287.708 387.139C288.29 387.452 288.986 387.608 289.796 387.608C290.605 387.608 291.301 387.452 291.884 387.139C292.466 386.822 292.911 386.389 293.219 385.839C293.531 385.286 293.688 384.653 293.688 383.943V374.455ZM298.171 376.017V374.455H309.08V376.017H304.506V389H302.745V376.017H298.171ZM313.56 374.455V389H311.798V374.455H313.56ZM329.364 381.727C329.364 383.261 329.087 384.587 328.533 385.705C327.979 386.822 327.219 387.684 326.253 388.29C325.287 388.896 324.184 389.199 322.944 389.199C321.703 389.199 320.6 388.896 319.634 388.29C318.668 387.684 317.908 386.822 317.354 385.705C316.8 384.587 316.523 383.261 316.523 381.727C316.523 380.193 316.8 378.867 317.354 377.75C317.908 376.633 318.668 375.771 319.634 375.165C320.6 374.559 321.703 374.256 322.944 374.256C324.184 374.256 325.287 374.559 326.253 375.165C327.219 375.771 327.979 376.633 328.533 377.75C329.087 378.867 329.364 380.193 329.364 381.727ZM327.66 381.727C327.66 380.468 327.449 379.405 327.028 378.538C326.611 377.672 326.045 377.016 325.33 376.571C324.62 376.126 323.824 375.903 322.944 375.903C322.063 375.903 321.265 376.126 320.55 376.571C319.84 377.016 319.274 377.672 318.853 378.538C318.436 379.405 318.228 380.468 318.228 381.727C318.228 382.987 318.436 384.05 318.853 384.916C319.274 385.783 319.84 386.438 320.55 386.884C321.265 387.329 322.063 387.551 322.944 387.551C323.824 387.551 324.62 387.329 325.33 386.884C326.045 386.438 326.611 385.783 327.028 384.916C327.449 384.05 327.66 382.987 327.66 381.727ZM343.86 374.455V389H342.155L334.229 377.58H334.087V389H332.326V374.455H334.03L341.985 385.903H342.127V374.455H343.86Z" fill="white"/>
</g>
<g filter="url(#filter1_b_0_1)">
<path d="M88 318L134 212M134 212L180 106L228 261L134 212Z" stroke="white" stroke-width="4"/>
<path d="M266.5 318L406.5 249.712L266.5 156.962L406.5 106" stroke="white" stroke-width="4"/>
<circle cx="261" cy="158" r="10" fill="white"/>
<circle cx="401" cy="251" r="10" fill="white"/>
<circle cx="261" cy="318" r="10" fill="white"/>
<circle cx="401" cy="106" r="10" fill="white"/>
</g>
<defs>
<filter id="filter0_b_0_1" x="140.513" y="370.256" width="207.347" height="23" filterUnits="userSpaceOnUse" color-interpolation-filters="sRGB">
<feFlood flood-opacity="0" result="BackgroundImageFix"/>
<feGaussianBlur in="BackgroundImageFix" stdDeviation="2"/>
<feComposite in2="SourceAlpha" operator="in" result="effect1_backgroundBlur_0_1"/>
<feBlend mode="normal" in="SourceGraphic" in2="effect1_backgroundBlur_0_1" result="shape"/>
</filter>
<filter id="filter1_b_0_1" x="82.1653" y="92" width="333.835" height="240" filterUnits="userSpaceOnUse" color-interpolation-filters="sRGB">
<feFlood flood-opacity="0" result="BackgroundImageFix"/>
<feGaussianBlur in="BackgroundImageFix" stdDeviation="2"/>
<feComposite in2="SourceAlpha" operator="in" result="effect1_backgroundBlur_0_1"/>
<feBlend mode="normal" in="SourceGraphic" in2="effect1_backgroundBlur_0_1" result="shape"/>
</filter>
</defs>
</svg>
